<?xml version="1.0" encoding="utf-8"?>
<!-- Generator: Adobe Illustrator 23.0.1, SVG Export Plug-In . SVG Version: 6.00 Build 0)  -->
<svg version="1.1" id="ws" xmlns="http://www.w3.org/2000/svg" xmlns:xlink="http://www.w3.org/1999/xlink" x="0px" y="0px"
	 viewBox="0 0 1024 1024" style="enable-background:new 0 0 1024 1024;" xml:space="preserve">
<style type="text/css">
	.st0{fill-rule:evenodd;clip-rule:evenodd;fill:#0EBEF6;}
	.st1{display:none;fill-rule:evenodd;clip-rule:evenodd;fill:#FFFFFF;}
</style>
<path class="st0" d="M512,10.2C232.9,10.2,6.8,234.9,6.8,512.1c0,277.1,226.1,501.7,505.2,501.7c279,0,505.2-224.6,505.2-501.7
	C1017.2,234.9,791,10.2,512,10.2z M768,531.2c0,38.1-14.5,71.9-43.7,101.5c-28.6,28.4-63.6,42.5-105.1,42.5
	c-41.9,0-77-14.1-105.2-42.5l-0.6-0.6l-0.6,0.6c-28.2,28.4-63.3,42.5-105.2,42.5c-41.9,0-77.1-14.1-105.7-42.5
	c-29.2-29.2-43.7-63-43.7-101.5V386.5h85.9v147.3c0,15.9,6,29.5,17.9,40.6c12.7,11.9,28,17.8,45.6,17.8c18.1,0,32.6-6.1,43.7-18.6
	c11-12.4,17.2-27,18.5-43.8v-142h85.3v143.4c0,17.6,6.1,32.1,18.5,43.2c6.2,5.7,12.9,10.1,20.1,13.3c7.3,3,15.6,4.6,24.8,4.6
	c9.3,0,17.5-1.6,24.8-4.6c7.3-3.1,14-7.6,20.2-13.3c12.3-11.6,18.5-25.9,18.5-43.2V386.5h86V531.2z"/>
<path class="st1" d="M768,531.2c0,38.1-14.5,71.9-43.7,101.5c-28.6,28.4-63.6,42.5-105.1,42.5c-41.9,0-77-14.1-105.2-42.5l-0.6-0.6
	l-0.6,0.6c-28.2,28.4-63.3,42.5-105.2,42.5c-41.9,0-77.1-14.1-105.7-42.5c-29.2-29.2-43.7-63-43.7-101.5V386.5h85.9v147.3
	c0,15.9,6,29.5,17.9,40.6c12.7,11.9,28,17.8,45.6,17.8c18.1,0,32.6-6.1,43.7-18.6c11-12.4,17.2-27,18.5-43.8v-142h85.3v143.4
	c0,17.6,6.1,32.1,18.5,43.2c6.2,5.7,12.9,10.1,20.1,13.3c7.3,3,15.6,4.6,24.8,4.6c9.3,0,17.5-1.6,24.8-4.6c7.3-3.1,14-7.6,20.2-13.3
	c12.3-11.6,18.5-25.9,18.5-43.2V386.5h86V531.2z"/>
</svg>
